<svg width="37" height="39" viewBox="0 0 37 39" xmlns="http://www.w3.org/2000/svg">
 <path d="m20.5 0c-0.0834 0-0.16775 0.016957-0.24805 0.052734l-9.8809 4.4727c-0.2224 0.10094-0.37109 0.33166-0.37109 0.58594v12.777c0 0.253 0.14869 0.48374 0.37109 0.58594l9.8809 4.4727c0.0742 0.0345 0.16155 0.052734 0.24805 0.052734s0.17385-0.018234 0.24805-0.052734l9.8809-4.4727c0.2224-0.1022 0.37109-0.33294 0.37109-0.58594v-12.777c0-0.25428-0.14869-0.485-0.37109-0.58594l-9.8809-4.4727c-0.0803-0.035778-0.16465-0.052734-0.24805-0.052734zm0 1.3359 8.9512 4.0508-4.207 2.0078-8.9707-4.1445 4.2266-1.9141zm-5.4688 2.4746c0.046192 0.1873 0.15803 0.35364 0.3418 0.4375l8.3613 3.8672-2.7656 1.3203c-0.065866-0.25183-0.2455-0.43555-0.46875-0.43555s-0.40288 0.18372-0.46875 0.43555l-8.4824-4.0488 3.4824-1.5762zm-3.7969 2.8809 8.7656 4.1836v10.562l-8.7656-3.9668v-10.779zm18.531 0v10.779l-8.7656 3.9668v-10.562l3.7832-1.8047v5.2793c0 0.3588 0.26898 0.65039 0.60938 0.65039 0.3405 0 0.60742-0.29159 0.60742-0.65039v-5.8613l3.7656-1.7969zm-29.084 13.311c-0.16712-0.01-0.34801 0.048516-0.47656 0.16602-0.12855 0.1187-0.20508 0.28453-0.20508 0.45703v13.75c-7.4015e-17 0.345 0.28263 0.625 0.64258 0.625h5.1426c0.29567 0 0.55291-0.1918 0.61719-0.4668 0.005967-0.022633 0.08243-0.31538 0.10547-0.40234l10.828 4.1816c1.1421 0.4263 2.0205 0.6875 3.0371 0.6875 1.6817 0 3.7024-0.73087 7.7812-2.6387l8.4961-4.4023c0.3012-0.1579 0.43966-0.53968 0.28906-0.86328-1.0166-2.3341-3.3891-3.5671-5.623-2.9277l-5.3516 1.5234c-0.16818-2.2046-1.2453-3.5017-3.4844-4.1504l-13.496-3.2305c0.0030112-0.032074 0.010891-0.073916 0.013672-0.10547 0.01285-0.1876-0.062856-0.37195-0.19141-0.50195-1.3241-1.2425-7.0066-1.6362-8.125-1.7012zm0.60352 1.293c2.021 0.15445 4.5637 0.4942 5.875 0.93555-0.066587 0.079968-0.12122 0.17174-0.14453 0.2832-0.07411 0.3543 0.13524 0.70616 0.46875 0.78516l0.082031 0.019531c-0.41603 2.8724-1.3756 6.8455-1.9492 9.1152-0.24697 0.005231-0.48563 0.16495-0.58203 0.42773-0.099525 0.30021 0.023445 0.62091 0.27539 0.78125-0.0063658 0.024659-0.021371 0.084307-0.027344 0.10742h-3.998v-12.455zm7.5352 2.3242 13.363 3.1992c1.8158 0.5255 2.5326 1.4237 2.582 3.2715l-1.582 0.45898c-0.5682 0.1633-1.1492 0.17858-1.7051 0.046875l-6.5957-1.5293c-0.3335-0.0777-0.66613 0.14831-0.74023 0.50391-0.0741 0.3556 0.13525 0.7055 0.46875 0.7832l6.5957 1.5293c0.3335 0.079 0.67959 0.11719 1.0254 0.11719 0.4323 0 0.85344-0.059888 1.2734-0.17969l2.0488-0.59375c0.072843-0.021819 0.13857-0.059993 0.19726-0.10742l5.8906-1.6816c1.4809-0.4237 2.9992 0.24388 3.8652 1.6465l-7.8809 4.0879c-6.4132 2.9932-7.2673 2.8753-9.8652 1.9043l-10.926-4.2207c0.57269-2.2507 1.5484-6.2825 1.9844-9.2363z"/>
</svg>
