<svg width="16" height="16" viewBox="0 0 16 16" xmlns="http://www.w3.org/2000/svg">
 <path d="m1.6113 0c-0.88853 2.9606e-16 -1.6113 0.72227-1.6113 1.6113v12.777c-1.4803e-16 0.8885 0.7228 1.6113 1.6113 1.6113h12.777c0.8885 0 1.6113-0.72283 1.6113-1.6113v-12.777c0-0.88906-0.72283-1.6113-1.6113-1.6113h-3.6387-4.5-4.6387zm0 0.5332h4.3887v6.127c0 0.18784 0.1115 0.33984 0.25 0.33984 0.1085 0 0.20233-0.094532 0.23633-0.22656 0.0965-0.07486 0.41167-0.18945 0.88867-0.18945 0.4765 0 0.79267 0.11459 0.88867 0.18945 0.0685 0.26474 0.40466 0.26474 0.47266 0 0.0965-0.07486 0.41167-0.18945 0.88867-0.18945 0.4765 0 0.79267 0.11459 0.88867 0.18945 0.034 0.13203 0.12733 0.22656 0.23633 0.22656 0.138 0 0.25-0.152 0.25-0.33984v-6.127h3.3887c0.5941 0 1.0781 0.48346 1.0781 1.0781v12.777c0 0.5941-0.48402 1.0781-1.0781 1.0781h-12.777c-0.59413 0-1.0781-0.48402-1.0781-1.0781v-12.777c0-0.59466 0.48399-1.0781 1.0781-1.0781zm4.8887 0.14648h4v5.3613c-0.3185-0.12318-0.702-0.13867-0.875-0.13867-0.223 0-0.793 0.026398-1.125 0.27344-0.332-0.24704-0.9025-0.27344-1.125-0.27344-0.1735 0-0.557 0.015492-0.875 0.13867v-5.3613z"/>
</svg>
