<svg width="18" height="12" viewBox="0 0 18 12" xmlns="http://www.w3.org/2000/svg">
 <path d="m1.8008 0c-0.99 1.4803e-16 -1.8008 0.80838-1.8008 1.8008v1.4492 1.5 5.4492c1.4803e-16 0.9924 0.81078 1.8008 1.8008 1.8008h14.398c1.014 0 1.8008-1.1288 1.8008-2.0996v-5.1504-1.5-1.4492c0-0.9924-0.81078-1.8008-1.8008-1.8008h-14.398zm0 0.59961h14.398c0.66 0 1.2012 0.53877 1.2012 1.2012v1.1992h-16.801v-1.1992c0-0.6624 0.54117-1.2012 1.2012-1.2012zm-1.2012 2.9004h16.801v1h-16.801v-1zm0 1.5h16.801v4.9004c0 0.675-0.55317 1.5-1.2012 1.5h-14.398c-0.66 0-1.2012-0.53937-1.2012-1.2012v-5.1992z"/>
</svg>
