<svg width="16.998" height="15.867" viewBox="0 0 16.998 15.867" xmlns="http://www.w3.org/2000/svg">
 <path d="m0.2832 0c-0.1564 0-0.2832 0.1268-0.2832 0.2832-3.7007e-17 0.1564 0.1268 0.2832 0.2832 0.2832h1.9102l1.7539 8.791c0.22893 1.1447 1.2311 1.9766 2.3809 1.9766h8.9727c0.1564 0 0.2832-0.1268 0.2832-0.2832s-0.1268-0.2832-0.2832-0.2832h-8.9727c-0.88117 0-1.648-0.64083-1.8242-1.5215l-0.019531-0.09375 11.002-1.3105c0.4595-0.04817 0.8116-0.3838 0.875-0.83203l0.63477-4.4199c0.0113-0.0816-0.013206-0.16284-0.066406-0.22461-0.0539-0.06233-0.13324-0.097656-0.21484-0.097656h-13.604l-0.40625-2.0391c-0.02606-0.1326-0.14444-0.22852-0.2793-0.22852h-2.1426zm2.9414 2.834h13.164l-0.58984 4.0977c-0.026 0.18984-0.171 0.32417-0.375 0.3457l-11.049 1.3184-1.1504-5.7617zm3.0098 9.6328c-0.93727 0-1.6992 0.76192-1.6992 1.6992 1e-7 0.9373 0.76195 1.7012 1.6992 1.7012 0.93726-1e-6 1.7012-0.76387 1.7012-1.7012s-0.76391-1.6992-1.7012-1.6992zm7.3633 0c-0.9372 0-1.6992 0.76192-1.6992 1.6992s0.76202 1.7012 1.6992 1.7012c0.9373-1e-6 1.7012-0.76387 1.7012-1.7012s-0.76387-1.6992-1.7012-1.6992zm-7.3633 0.56641c0.62446 0 1.1348 0.50781 1.1348 1.1328s-0.51031 1.1348-1.1348 1.1348c-0.62504 0-1.1328-0.50976-1.1328-1.1348s0.50777-1.1328 1.1328-1.1328zm7.3633 0c0.6245 0 1.1348 0.50781 1.1348 1.1328s-0.51027 1.1348-1.1348 1.1348c-0.625 0-1.1328-0.50976-1.1328-1.1348s0.50781-1.1328 1.1328-1.1328z"/>
</svg>
