<svg width="22.258" height="14" viewBox="0 0 22.258 14" xmlns="http://www.w3.org/2000/svg">
 <path d="m2.5977 0c-1.4319 0-2.5977 1.0982-2.5977 2.4492v4.9004c0 1.351 1.1657 2.4512 2.5977 2.4512h0.26562l-0.62695 2.3652c-0.03858 0.147 0.025866 0.30191 0.16016 0.37891 0.06158 0.042 0.13143 0.05469 0.20117 0.05469 0.08235 0 0.16296-0.02017 0.23047-0.07617l3.6074-2.7227h1.9863c0.41857 0.82435 1.3042 1.3984 2.3359 1.3984h5.0625l3.6074 2.7246c0.0667 0.056 0.15012 0.07617 0.23242 0.07617 0.0698 0 0.14027-0.01464 0.20117-0.05664 0.1343-0.077 0.1968-0.22995 0.1582-0.37695l-0.625-2.3672h0.26562c1.432 0 2.5977-1.0982 2.5977-2.4492v-4.1992c0-1.351-1.1657-2.4512-2.5977-2.4512h-5.5996c-0.18203-1.1842-1.2558-2.0996-2.5605-2.0996zm0 0.69922h8.9023c0.8963 0 1.6456 0.60239 1.8184 1.4004h-2.5605c-0.17899 0-0.35455 0.018092-0.52344 0.050781-0.50593 0.098291-0.96028 0.33566-1.3125 0.66797-0.2351 0.22181-0.42506 0.48628-0.55664 0.7793-0.13158 0.29302-0.20508 0.61538-0.20508 0.95312v4.1992c0 0.029391 0.00867 0.056794 0.00977 0.085937 0.00361 0.089412 0.00638 0.17922 0.021484 0.26367h-1.8848c-0.08459 0-0.16713 0.029125-0.23242 0.078125l-2.8516 2.1543 0.47656-1.7988c0.02745-0.105 0.00212-0.20897-0.068359-0.29297-0.07049-0.091-0.17871-0.14062-0.29297-0.14062h-0.74023c-1.0224 0-1.8555-0.784-1.8555-1.75v-4.9004c0-0.966 0.83308-1.75 1.8555-1.75zm8.1602 2.1016h8.9023c1.0224 1e-7 1.8555 0.784 1.8555 1.75v4.1992c0 0.966-0.83307 1.75-1.8555 1.75h-0.74219c-0.1142 0-0.22247 0.04963-0.29297 0.14062-0.0705 0.084-0.09391 0.18797-0.06641 0.29297l0.47461 1.7988-2.8496-2.1562c-0.065997-0.049-0.14782-0.076172-0.23242-0.076172h-5.1934c-0.80331 0-1.4831-0.48611-1.7402-1.1621-0.038054-0.10357-0.06488-0.20296-0.083984-0.29883-0.019632-0.098522-0.03125-0.19327-0.03125-0.28906v-4.1992c0-0.2415 0.052464-0.4723 0.14648-0.68164 0.09402-0.20934 0.23048-0.39827 0.39844-0.55664 0.33581-0.31613 0.79991-0.51172 1.3105-0.51172z"/>
</svg>
