<svg width="38" height="27" viewBox="0 0 38 27" xmlns="http://www.w3.org/2000/svg">
 <path d="m3.8125 0c-2.1027-5.9212e-16 -3.8125 1.7349-3.8125 3.8691v19.26c-5.9212e-16 2.1343 1.7098 3.8711 3.8125 3.8711h30.373c2.1026 0 3.8145-1.7368 3.8145-3.8711v-19.26c0-2.1343-1.7119-3.8691-3.8145-3.8691h-30.373zm0 1.2852h30.373c1.4034 0 2.5469 1.1581 2.5469 2.584v19.26c0 1.4259-1.1435 2.5859-2.5469 2.5859h-30.373c-1.4035 0-2.5449-1.16-2.5449-2.5859v-19.26c0-1.4259 1.1415-2.584 2.5449-2.584zm24.787 2.7148c-0.3324 0-0.59961 0.28643-0.59961 0.64258v7.7148c0 0.3549 0.26721 0.64258 0.59961 0.64258h4.8008c0.3312 0 0.59961-0.28768 0.59961-0.64258v-7.7148c0-0.35615-0.26841-0.64258-0.59961-0.64258h-4.8008zm0.59961 1.2852h3.6016v6.4297h-3.6016v-6.4297zm-23.574 1.7148c-0.34625 0-0.625 0.223-0.625 0.5 0 0.276 0.27875 0.5 0.625 0.5h8.75c0.345 0 0.625-0.224 0.625-0.5 0-0.277-0.28-0.5-0.625-0.5h-8.75zm17.375 0c-0.9347 0-1.4362 0.23124-1.8789 0.43555-0.4013 0.18585-0.72048 0.33398-1.4551 0.33398-0.3694 1e-7 -0.66602 0.2743-0.66602 0.61523 0 0.33969 0.29662 0.61523 0.66602 0.61523 1.0506 0 1.608-0.25807 2.0547-0.46484 0.3693-0.17108 0.6606-0.30469 1.2793-0.30469 0.7053-1e-7 0.96999 0.13288 1.3047 0.30273 0.412 0.20677 0.924 0.4668 2.0293 0.4668 0.368 0 0.66602-0.27554 0.66602-0.61523 0-0.34093-0.29802-0.61523-0.66602-0.61523-0.7653 1e-7 -1.0407-0.14041-1.3887-0.31641-0.4013-0.20184-0.89861-0.45312-1.9453-0.45312zm0 4c-0.9347 0-1.4362 0.23125-1.8789 0.43555-0.4013 0.1858-0.72048 0.33398-1.4551 0.33398-0.3694 0-0.66602 0.27434-0.66602 0.61524 0 0.3397 0.29662 0.61523 0.66602 0.61523 1.0506 0 1.608-0.25804 2.0547-0.46484 0.3693-0.1711 0.6606-0.30469 1.2793-0.30469 0.7053 0 0.96999 0.13293 1.3047 0.30273 0.412 0.2068 0.924 0.4668 2.0293 0.4668 0.368 0 0.66602-0.27553 0.66602-0.61523 0-0.3409-0.29802-0.61524-0.66602-0.61524-0.7653 0-1.0407-0.14041-1.3887-0.31641-0.4013-0.2018-0.89861-0.45312-1.9453-0.45312zm-17.375 2c-0.34625 0-0.625 0.223-0.625 0.5 0 0.276 0.27875 0.5 0.625 0.5h8.75c0.345 0 0.625-0.224 0.625-0.5 0-0.277-0.28-0.5-0.625-0.5h-8.75zm0.017578 7c-0.35615 0-0.64258 0.223-0.64258 0.5 0 0.276 0.28643 0.5 0.64258 0.5h7.7148c0.3549 0 0.64258-0.224 0.64258-0.5 0-0.277-0.28768-0.5-0.64258-0.5h-7.7148z"/>
</svg>
