<svg width="29" height="39" viewBox="0 0 29 39" xmlns="http://www.w3.org/2000/svg">
 <path d="m10.387 1c-0.15874-6.6221e-4 -0.23016-0.013298-0.3457 0.10156l-0.064454 0.066406c-0.011438 0.010618-0.022605 0.019793-0.033203 0.03125l-9.6797 9.7012c-0.058501 0.041736-0.10583 0.091083-0.14648 0.15039-0.088156 0.088459-0.11719 0.11671-0.11719 0.26758v0.070313 26.979c7.4015e-17 0.3496 0.28286 0.63281 0.63086 0.63281h27.738c0.348 0 0.63086-0.28321 0.63086-0.63281v-36.734c0-0.3496-0.28286-0.63281-0.63086-0.63281h-17.973c-0.002511 0-0.003392 6.4e-6 -0.005859 0-6.63e-4 -2.12e-6 -0.00129 0-0.001953 0s-0.00129-2.12e-6 -0.001953 0zm0.61328 1.2676h16.738v35.467h-26.477v-25.705l0.029297-0.029297h9.0977c0.3373 0 0.61133-0.27403 0.61133-0.61133v-9.1211zm-1.2227 1.207v7.3027h-7.2695l7.2695-7.3027z"/>
</svg>
