<svg width="12.219" height="13.585" viewBox="0 0 12.219 13.585" xmlns="http://www.w3.org/2000/svg">
 <path d="m5.6836 0.0015812c-0.068398-0.010833-0.13175 0.035118-0.14258 0.10352l-0.80469 5.0801h-4.6113c-0.06925 0-0.125 0.05575-0.125 0.125s0.05575 0.125 0.125 0.125h4.5723l-0.42969 2.7148h-3.6738c-0.06925 0-0.125 0.05575-0.125 0.125s0.05575 0.125 0.125 0.125h3.6348l-0.79883 5.0391c-0.010833 0.0684 0.035118 0.1337 0.10352 0.14453 0.068397 0.01083 0.13175-0.03707 0.14258-0.10547l0.80469-5.0781h2.748l-0.79883 5.0391c-0.010833 0.0684 0.035118 0.1337 0.10352 0.14453 0.068397 0.01083 0.13175-0.03707 0.14258-0.10547l0.80469-5.0781h4.6133c0.06925 0 0.125-0.05575 0.125-0.125s-0.05575-0.125-0.125-0.125h-4.5742l0.42969-2.7148h3.6758c0.06925 0 0.125-0.05575 0.125-0.125s-0.05575-0.125-0.125-0.125h-3.6348l0.79883-5.041c0.010833-0.068397-0.037071-0.13175-0.10547-0.14258-0.068398-0.010833-0.13175 0.035118-0.14258 0.10352l-0.80469 5.0801h-2.7461l0.79883-5.041c0.010833-0.068397-0.037071-0.13175-0.10547-0.14258zm-0.73438 5.4336h2.748l-0.42969 2.7148h-2.748z"/>
</svg>
