<svg width="12" height="16" viewBox="0 0 12 16" xmlns="http://www.w3.org/2000/svg">
 <path d="m6 0c-2.406-5.9212e-16 -4.3633 1.915-4.3633 4.2676v2.666h-0.27344c-0.75218-1e-7 -1.3633 0.59656-1.3633 1.332v6.4004c-1.4803e-16 0.7355 0.6111 1.334 1.3633 1.334h9.2734c0.7521 0 1.3633-0.59848 1.3633-1.334v-6.4004c0-0.73547-0.61118-1.332-1.3633-1.332h-0.27344v-2.666c0-2.3525-1.9573-4.2676-4.3633-4.2676zm0 0.5332c2.1049 0 3.8184 1.6762 3.8184 3.7344v2.666h-7.6367v-2.666c0-2.0581 1.7134-3.7344 3.8184-3.7344zm-4.6367 6.9336h0.54688 8.1816 0.54492c0.4511 0 0.81836 0.35776 0.81836 0.79883v6.4004c0 0.4411-0.36726 0.80078-0.81836 0.80078h-9.2734c-0.45109 0-0.81836-0.35968-0.81836-0.80078v-6.4004c0-0.44107 0.36726-0.79883 0.81836-0.79883zm4.6367 1.5996c-0.90218 1e-7 -1.6367 0.71747-1.6367 1.5996 0 0.79076 0.59115 1.4463 1.3633 1.5742v1.8926c0 0.1472 0.12289 0.26758 0.27344 0.26758s0.27148-0.12038 0.27148-0.26758v-1.8926c0.7723-0.12782 1.3652-0.78334 1.3652-1.5742 0-0.88214-0.73453-1.5996-1.6367-1.5996zm0 0.5332c0.6011 0 1.0898 0.47811 1.0898 1.0664s-0.48874 1.0684-1.0898 1.0684c-0.60163 0-1.0918-0.48006-1.0918-1.0684s0.49017-1.0664 1.0918-1.0664z"/>
</svg>
