<svg width="17.001" height="18" viewBox="0 0 17.001 18" xmlns="http://www.w3.org/2000/svg">
 <path d="m5.9492 0c-3.281 0-5.9492 2.6682-5.9492 5.9492 0 3.281 2.6682 5.9512 5.9492 5.9512 1.2779 0 2.461-0.40947 3.4316-1.0977 0.00836 0.01128 0.00537 0.02691 0.015625 0.03711l7.1211 7.0781c0.0556 0.055 0.12867 0.082031 0.20117 0.082031 0.0726 0 0.14422-0.02703 0.19922-0.08203 0.111-0.1111 0.111-0.29124 0-0.40234l-7.0977-7.0547c1.271-1.092 2.0801-2.7084 2.0801-4.5117 0-3.281-2.6702-5.9492-5.9512-5.9492zm0 0.56641c2.9682 0 5.3848 2.4146 5.3848 5.3828 0 2.9682-2.4166 5.3848-5.3848 5.3848-2.9682 0-5.3828-2.4166-5.3828-5.3848 0-2.9682 2.4146-5.3828 5.3828-5.3828z"/>
</svg>
