<svg width="15" height="15" viewBox="0 0 15 15" xmlns="http://www.w3.org/2000/svg">
 <path d="m1.0938 0.625c-0.25625 0-0.46875 0.21062-0.46875 0.46875 0 7.1994 6.0812 13.281 13.281 13.281 0.2563 0 0.4688-0.21 0.4688-0.4688v-2.8124c0-0.2582-0.2125-0.4688-0.4688-0.4688-1.0249 0-2.3312-0.31-3.2062-0.6-0.1688-0.05688-0.3562-0.0131-0.4812 0.1119l-1.9126 1.3675c-0.09375 0.0687-0.21875 0.0775-0.325 0.0237-2.275-1.1662-3.675-2.5637-4.825-4.8237-0.05625-0.11875-0.0375-0.26312 0.05625-0.35875l1.6438-1.7031c0.13125-0.1325 0.175-0.3125 0.11875-0.48625-0.39375-1.2094-0.6-2.2412-0.6-3.0625 0-0.25812-0.2125-0.46875-0.46875-0.46875h-2.8125zm12.812 14.375c-7.5374 0-13.906-6.3681-13.906-13.906 0-0.60312 0.49375-1.0938 1.0938-1.0938h2.8125c0.6 0 1.0938 0.49062 1.0938 1.0938 0 0.755 0.19375 1.7206 0.575 2.8706 0.125 0.39875 0.01875 0.82437-0.275 1.1162l-1.4812 1.5375c1.0375 1.9619 2.3 3.2175 4.2812 4.2663l1.7188-1.2232c0.25625-0.25875 0.69375-0.36188 1.0812-0.22813 0.7875 0.26063 2.0563 0.56688 3.0062 0.56688 0.6001 0 1.0938 0.4906 1.0938 1.0938v2.8124c0 0.6032-0.4937 1.0938-1.0938 1.0938z"/>
</svg>
