<svg width="16.002" height="10.947" viewBox="0 0 16.002 10.947" xmlns="http://www.w3.org/2000/svg">
 <path d="m2.4004 0c-1.28 0-2.4004 0.9195-2.4004 1.9668v6.9277c0 1.0742 1.1417 2.0527 2.4004 2.0527h11.199c1.2587 0 2.4004-0.99173 2.4004-2.0801v-1.5176c3.3e-5 -0.00156 2e-3 -0.00234 2e-3 -0.00391v-3.7422c0-0.00155-0.0019-0.00236-2e-3 -0.00391v-1.6328c0-1.0473-1.1204-1.9668-2.4004-1.9668zm0 0.45703h11.199c0.992 0 1.8672 0.70514 1.8672 1.5098v1.4023h-2.2441c-1.1924 0-2.2734 1.0032-2.2734 2.1055 0 1.1013 1.081 2.1055 2.2734 2.1055h2.2441v1.2871c0 0.83474-0.90719 1.623-1.8672 1.623h-11.199c-0.96 0-1.8672-0.77511-1.8672-1.5957v-6.9277c0-0.80463 0.87519-1.5098 1.8672-1.5098zm10.822 3.3789h2.2441v3.2754h-2.2441c-0.9095 0-1.7676-0.79509-1.7676-1.6367 0-0.84164 0.85808-1.6387 1.7676-1.6387zm-0.08984 1.2168c-0.2767 0-0.5 0.22434-0.5 0.5 0 0.27567 0.2233 0.5 0.5 0.5 0.2767 0 0.5-0.22433 0.5-0.5 1e-6 -0.27566-0.2233-0.5-0.5-0.5zm0 0.33398c0.0933 0 0.16602 0.074016 0.16602 0.16602 0 0.09167-0.07272 0.16602-0.16602 0.16602-0.0933 0-0.16602-0.074346-0.16602-0.16602 0-0.092 0.07272-0.16602 0.16602-0.16602z"/>
</svg>
