<svg width="18" height="17.357" viewBox="0 0 18 17.357" xmlns="http://www.w3.org/2000/svg">
 <path d="m9 12.745c0.06331 0 0.12724 0.0192 0.18186 0.059l4.7017 3.3926-2.0148-5.4279c-0.0484-0.131-0.0037-0.2774 0.1093-0.3594l4.7507-3.4274h-5.7538c-0.1359 0-0.2563-0.08876-0.2966-0.21911l-1.6784-5.4254-1.6784 5.4254c-0.04034 0.13035-0.16076 0.21911-0.29669 0.21911h-5.7538l4.7508 3.4274c0.11296 0.082 0.15765 0.2284 0.10924 0.3594l-2.0148 5.4279 4.7017-3.3926c0.05462-0.0398 0.11793-0.059 0.18187-0.059m5.5297 4.6111c-0.0633 0-0.1272-0.0199-0.1818-0.059l-5.3479-3.8594-5.3479 3.8594c-0.1111 0.0807-0.26131 0.0789-0.36993-0.0049-0.10862-0.0826-0.1502-0.2266-0.10303-0.3545l2.2879-6.1634-5.3386-3.8514c-0.10924-0.07883-0.15455-0.21848-0.11359-0.34634 0.041586-0.12911 0.16076-0.21538 0.29545-0.21538h6.4856l1.9074-6.1659c0.08006-0.26069 0.51331-0.26069 0.59275 0l1.908 6.1659h6.4856c0.1347 0 0.2538 0.08627 0.2954 0.21538 0.041 0.12786-0.0043 0.26751-0.1136 0.34634l-5.3385 3.8514 2.2878 6.1634c0.0472 0.1279 0.0056 0.2719-0.103 0.3545-0.0552 0.0428-0.1217 0.0639-0.1881 0.0639"/>
</svg>
