<svg width="18" height="17.357" viewBox="0 0 18 17.357" xmlns="http://www.w3.org/2000/svg">
 <path d="m14.348 17.297c0.0546 0.0391 0.1185 0.0589 0.1818 0.0589 0.0664 0 0.1329-0.0211 0.1881-0.0639 0.1086-0.0825 0.1502-0.2265 0.103-0.3544l-2.2878-6.1634 5.3385-3.8514c0.1093-0.07882 0.1546-0.21848 0.1136-0.34634-0.0416-0.12911-0.1607-0.21538-0.2954-0.21538h-6.4856l-1.908-6.1659c-0.07944-0.26069-0.51269-0.26069-0.59275 0l-1.9074 6.1659h-6.4856c-0.13469 0-0.25386 0.08627-0.29545 0.21538-0.040966 0.12786 0.0043449 0.26752 0.11359 0.34634l5.3386 3.8514-2.2879 6.1634c-0.04717 0.1279-0.00559 0.2719 0.10303 0.3544 0.10862 0.0838 0.25883 0.0857 0.36993 5e-3l5.3479-3.8595z"/>
</svg>
