<svg width="18" height="15" viewBox="0 0 18 15" xmlns="http://www.w3.org/2000/svg">
 <path d="m1.8184 0.5c-1.002 0-1.8184 0.85931-1.8184 1.916v7.5254 1.2344 1.1914c1.4803e-16 0.6245 0.46878 1.1328 1.0508 1.1328h2.043c0.20742 0.58105 0.75679 1 1.4062 1 0.65659 0 1.2102-0.42848 1.4121-1.0195 0.0038862 1.11e-4 0.0058398 0.003906 0.0097656 0.003906h7.166c0.20294 0.58922 0.75682 1.0156 1.4121 1.0156 0.64946 0 1.1988-0.41895 1.4062-1h1.043c0.576 0 1.0508-0.50831 1.0508-1.1328v-4.3672c0-0.03882-0.005578-0.077041-0.017578-0.11328l-1.8008-5.1758c-0.048-0.12617-0.15525-0.21094-0.28125-0.21094h-3.9004v-0.083984c0-1.0567-0.81636-1.916-1.8184-1.916h-8.3633zm0 0.64648h8.3633c0.672 0 1.2188 0.56938 1.2188 1.2695v0.4082 1.1836 5.6094h-10.801v-7.2012c0-0.70015 0.54675-1.2695 1.2188-1.2695zm10.182 2h3.6895l1.7109 4.9121v4.3086c0 0.2679-0.20517 0.48633-0.45117 0.48633h-0.96484c-0.074934-0.75767-0.70929-1.3535-1.4844-1.3535-0.825 0-1.5 0.673-1.5 1.5h-7c0-0.827-0.675-1.5-1.5-1.5-0.77508 0-1.4094 0.59585-1.4844 1.3535h-1.9648c-0.246 0-0.45117-0.21843-0.45117-0.48633v-1.1914-0.91016h11.1c0.168 0 0.30078-0.145 0.30078-0.32422v-5.9336-0.86133zm1.25 1.3535c-0.14 0-0.25 0.112-0.25 0.25v2.5c0 0.1385 0.11 0.25 0.25 0.25h2.5c0.14 0 0.25-0.1115 0.25-0.25 0-0.138-0.11-0.25-0.25-0.25h-2.25v-2.25c0-0.138-0.11-0.25-0.25-0.25zm-8.75 7.5c0.55 0 1 0.4485 1 1s-0.45 1-1 1-1-0.4485-1-1 0.45-1 1-1zm10 0c0.55 0 1 0.4485 1 1s-0.45 1-1 1-1-0.4485-1-1 0.45-1 1-1z"/>
</svg>
