<svg width="36" height="36" viewBox="0 0 36 36" xmlns="http://www.w3.org/2000/svg">
 <path d="m17.84 0.023438-17.4 4.7988c-0.2604 0.0708-0.43945 0.30692-0.43945 0.57812v5.0996 24.9c-7.4015e-17 0.3324 0.26721 0.59961 0.59961 0.59961h34.801c0.3312 0 0.59961-0.26721 0.59961-0.59961v-24.9-5.0996c0-0.27121-0.18101-0.50732-0.44141-0.57812l-17.4-4.7988c-0.1032-0.03-0.21516-0.03-0.31836 0zm0.16016 1.1992 13.693 3.7773h-27.387l13.693-3.7773zm-16.801 4.7773h33.602v4h-33.602v-4zm0 5h33.602v5h-33.602v-5zm0 6h33.602v17.801h-0.80078v-9.1895c0-0.3373-0.27403-0.61133-0.61133-0.61133h-1.3887v-4.4004c0-0.3312-0.26198-0.59961-0.58398-0.59961h-5.832c-0.3231 0-0.58398 0.26841-0.58398 0.59961v4.4004h-1.3887c-0.3385 0-0.61133 0.27403-0.61133 0.61133v9.1895h-2v-5.2168c0-0.322-0.25687-0.58398-0.57227-0.58398h-6.8555c-0.3165 0-0.57227 0.26198-0.57227 0.58398v5.2168h-1v-5.2168c0-0.322-0.28-0.58398-0.625-0.58398h-1.375v-5.416c0-0.322-0.26198-0.58398-0.58398-0.58398h-5.832c-0.32316 0-0.58398 0.26198-0.58398 0.58398v5.416h-0.375c-0.34625 0-0.625 0.26198-0.625 0.58398v5.2168h-0.80078v-17.801zm24.967 4.1992h4.668v3.6016h-4.668v-3.6016zm-22 2.9668h4.668v4.668h-4.668v-4.668zm20.057 2.0566h8.5547v8.5547h-8.5547v-8.5547zm-20.973 3.9434h7.5v4.6348h-7.5v-4.6348zm10.893 0h5.7148v4.6348h-5.7148v-4.6348z"/>
</svg>
