<svg width="160" height="34" viewBox="0 0 160 34" fill="none" xmlns="http://www.w3.org/2000/svg">
<path fill-rule="evenodd" clip-rule="evenodd" d="M37.9549 4.91157L40.8573 0.111572H0.1875L3.08983 4.91157H37.9549Z" fill="white"/>
<path fill-rule="evenodd" clip-rule="evenodd" d="M32.1503 14.586L35.0527 9.74878H5.99219L8.89451 14.586H32.1503Z" fill="white"/>
<path fill-rule="evenodd" clip-rule="evenodd" d="M26.3457 24.2232L29.248 19.386H11.7969L14.6992 24.2232H26.3457Z" fill="white"/>
<path fill-rule="evenodd" clip-rule="evenodd" d="M20.539 33.8605L23.4414 29.0605H17.6367L20.539 33.8605Z" fill="white"/>
<path fill-rule="evenodd" clip-rule="evenodd" d="M14.6992 24.2231L17.6388 29.0604H23.4434L20.3922 24.2231H14.6992Z" fill="#CFCFCF"/>
<path fill-rule="evenodd" clip-rule="evenodd" d="M8.89453 14.5859L17.6387 19.3859H29.248L20.5783 14.5859H8.89453Z" fill="#CFCFCF"/>
<path fill-rule="evenodd" clip-rule="evenodd" d="M3.08984 4.91162L17.6387 9.74883H35.0526L20.5782 4.91162H3.08984Z" fill="#CFCFCF"/>
<path fill-rule="evenodd" clip-rule="evenodd" d="M43.9842 7.14418H53.2121C53.4354 7.14418 53.6958 7.10697 53.9191 6.99534C54.1424 6.88371 54.2912 6.73487 54.3656 6.54883H54.8865L53.9935 10.0465C53.8447 10.5302 53.3982 10.7907 52.654 10.7907H51.3144L48.7842 21.5442C48.747 21.693 48.8214 21.8419 48.9703 21.9907C49.1191 22.1395 49.3051 22.2139 49.454 22.2139L49.3051 22.7349H43.0168C42.533 22.7349 42.3098 22.5116 42.3098 22.0279C42.3098 21.9535 42.3098 21.8419 42.347 21.6558L44.9144 10.7535H43.3517C43.1284 10.7535 42.9051 10.7907 42.7563 10.9023C42.6075 11.0139 42.4958 11.1628 42.4214 11.3116H41.8633L42.7563 7.70232C42.8307 7.47906 42.9424 7.33022 43.1284 7.2558C43.2772 7.18139 43.5749 7.14418 43.9842 7.14418Z" fill="white"/>
<path fill-rule="evenodd" clip-rule="evenodd" d="M64.6731 7.14429H60.3568C58.6079 7.14429 57.2684 7.66522 56.3382 8.66987C55.594 9.48847 55.0358 10.7164 54.6265 12.3536L53.6219 16.6327C53.4358 17.4141 53.3242 18.1954 53.3242 18.9396C53.3242 20.1675 53.6963 21.135 54.3661 21.7675C55.0731 22.4001 56.1149 22.735 57.5289 22.735H62.18C63.6684 22.735 64.8219 22.4001 65.6777 21.7675C66.6451 21.0234 67.3149 19.8327 67.7242 18.121L69.101 12.3908C69.2126 11.9815 69.2498 11.535 69.2498 11.0885C69.2498 9.82336 68.8033 8.85592 67.9475 8.18615C67.0917 7.47917 66.0126 7.14429 64.6731 7.14429ZM59.7614 17.935L61.2126 11.6838C61.3614 11.0513 61.6963 10.7536 62.1428 10.7536C62.5893 10.7536 62.8126 10.9768 62.8126 11.4234C62.8126 11.4978 62.8126 11.6094 62.7754 11.7954L61.287 18.1582C61.2126 18.4931 61.101 18.7536 60.9521 18.8652C60.8033 18.9768 60.6172 19.0513 60.3196 19.0513C59.9103 19.0513 59.687 18.8652 59.687 18.4931C59.687 18.3698 59.7125 18.221 59.7425 18.0466C59.7487 18.0105 59.755 17.9733 59.7614 17.935Z" fill="white"/>
<path fill-rule="evenodd" clip-rule="evenodd" d="M81.8602 7.14429H71.7765L71.6277 7.66522C71.7765 7.66522 71.9626 7.73964 72.1114 7.88847C72.2602 8.03731 72.3347 8.22336 72.2975 8.37219L69.2091 21.5815C69.1719 21.7303 69.1719 21.8792 69.1719 21.9536C69.1719 22.1768 69.2463 22.3629 69.3579 22.5117C69.5068 22.6606 69.6928 22.735 69.9533 22.735H76.2044L76.3533 22.2141C76.1672 22.2141 76.0184 22.1768 75.8695 22.0652C75.7579 21.9536 75.6835 21.8048 75.6835 21.6559L75.7579 21.2094L76.6137 17.6373H81.2649C82.6416 17.6373 83.6463 17.3024 84.2416 16.6327C84.837 15.9629 85.3951 14.5861 85.8789 12.5024C85.908 12.3422 85.9371 12.1934 85.964 12.0559C86.0058 11.8423 86.0423 11.6563 86.0649 11.4978C86.1021 11.2373 86.1021 10.9396 86.1021 10.6048C86.1021 9.41405 85.73 8.52103 85.023 7.96289C84.3161 7.40475 83.237 7.14429 81.8602 7.14429ZM77.0975 14.6234L78.1393 10.0838V10.121H78.9579C79.33 10.121 79.5533 10.1954 79.7393 10.3443C79.9254 10.4931 79.9998 10.7536 79.9998 11.1629C79.9998 11.4606 79.9254 11.8699 79.8137 12.3908C79.5905 13.2838 79.3672 13.8792 79.144 14.1768C78.9207 14.4745 78.5486 14.6234 78.0277 14.6234H77.0975Z" fill="white"/>
<path fill-rule="evenodd" clip-rule="evenodd" d="M95.1444 15.8513H93.5444L92.2421 21.4327L92.2049 21.6187C92.2049 21.7676 92.2793 21.9164 92.4281 22.0653C92.577 22.1769 92.7258 22.2513 92.9119 22.2513L92.8002 22.7722H86.4747C85.9909 22.7722 85.7305 22.549 85.7305 22.0653C85.7305 21.9908 85.7305 21.8792 85.7677 21.6932L88.8561 8.40945C88.8933 8.26061 88.8188 8.11177 88.67 7.96294C88.5212 7.8141 88.3351 7.73968 88.1863 7.73968L88.3351 7.21875H94.6235C95.1072 7.21875 95.3305 7.44201 95.3305 7.92573C95.3305 8.00015 95.3305 8.11177 95.3305 8.29782L94.2142 12.9118H95.8142L96.8561 8.40945C96.8933 8.26061 96.8188 8.11177 96.67 7.96294C96.5212 7.8141 96.3723 7.73968 96.1863 7.73968L96.2979 7.21875H102.586C102.847 7.21875 103.033 7.29317 103.144 7.4048C103.256 7.51642 103.33 7.70247 103.33 7.96294L103.293 8.29782L100.205 21.5815C100.168 21.7304 100.242 21.8792 100.391 22.0281C100.54 22.1769 100.726 22.2513 100.875 22.2513L100.726 22.7722H94.4374C93.9537 22.7722 93.7305 22.549 93.7305 22.0653C93.7305 21.9908 93.7305 21.8792 93.7305 21.6932L95.1444 15.8513Z" fill="white"/>
<path fill-rule="evenodd" clip-rule="evenodd" d="M112.299 22.735H118.141L118.29 22.2885C118.067 22.2885 117.844 22.1768 117.62 22.028C117.397 21.842 117.285 21.6559 117.285 21.4699L116.244 8.26057C116.244 7.88847 116.095 7.62801 115.871 7.44196C115.611 7.25592 115.313 7.14429 114.978 7.14429H108.244L108.095 7.66522C108.244 7.66522 108.392 7.73964 108.541 7.88847C108.69 8.0001 108.764 8.18615 108.764 8.33498C108.764 8.48382 108.727 8.59545 108.69 8.66987L102.03 21.5443C101.955 21.7303 101.918 21.842 101.918 21.9908C101.918 22.4745 102.253 22.735 102.885 22.735H107.797L107.909 22.2141C107.723 22.2141 107.574 22.1768 107.462 22.0652C107.351 21.9908 107.276 21.8792 107.276 21.7303C107.313 21.6187 107.313 21.5815 107.313 21.5443C107.313 21.5257 107.323 21.5071 107.332 21.4885C107.341 21.4699 107.351 21.4513 107.351 21.4327L108.281 19.5722H110.923L111.109 21.8792C111.146 22.2141 111.258 22.4373 111.444 22.5489C111.63 22.6606 111.89 22.735 112.299 22.735ZM109.248 16.3722L111.258 11.7582L111.592 16.3722H109.248Z" fill="white"/>
<path fill-rule="evenodd" clip-rule="evenodd" d="M132.02 18.4187L130.755 8.03731C130.718 7.77685 130.607 7.5908 130.309 7.40475C130.086 7.21871 129.825 7.14429 129.49 7.14429H124.02L123.909 7.66522C124.095 7.66522 124.244 7.73964 124.355 7.85126C124.467 7.96289 124.541 8.11173 124.541 8.29778L124.504 8.70708L119.927 18.4559C119.853 18.6048 119.741 18.7908 119.593 18.9024C119.444 19.0141 119.258 19.0885 119.034 19.0885H118.439L117.881 21.6187L117.844 21.9908C117.844 22.4745 118.141 22.735 118.774 22.735H130.793C131.351 22.735 131.76 22.6978 131.983 22.5861C132.281 22.4373 132.504 22.1396 132.616 21.6931L133.211 19.1257H132.653C132.318 19.1257 132.095 18.9024 132.02 18.4187ZM126.662 12.1675L127.109 19.0141H123.983L126.662 12.1675Z" fill="white"/>
<path fill-rule="evenodd" clip-rule="evenodd" d="M144.857 7.14429H140.54C138.829 7.14429 137.489 7.66522 136.522 8.66987C135.778 9.48847 135.219 10.7164 134.81 12.3536L133.805 16.6327C133.619 17.4141 133.508 18.1954 133.508 18.9396C133.508 20.1675 133.88 21.135 134.55 21.7675C135.257 22.4001 136.299 22.735 137.712 22.735H142.364C143.852 22.735 145.005 22.4001 145.861 21.7675C146.829 21.0234 147.499 19.8327 147.908 18.121L149.285 12.3908C149.396 11.9815 149.433 11.535 149.433 11.0885C149.433 9.82336 148.987 8.85592 148.131 8.18615C147.275 7.47917 146.196 7.14429 144.857 7.14429ZM139.945 17.935L141.396 11.6838C141.582 11.0513 141.88 10.7536 142.326 10.7536C142.773 10.7536 142.996 10.9768 142.996 11.4234C142.996 11.4978 142.996 11.6094 142.959 11.7954L141.471 18.1582C141.396 18.4931 141.285 18.7536 141.136 18.8652C140.987 18.9768 140.801 19.0513 140.503 19.0513C140.094 19.0513 139.871 18.8652 139.871 18.4931C139.871 18.3698 139.896 18.221 139.926 18.0466C139.932 18.0105 139.939 17.9733 139.945 17.935Z" fill="white"/>
<path fill-rule="evenodd" clip-rule="evenodd" d="M152.857 7.96289H151.629V7.14429H155.015V7.96289H153.787V11.2373H152.894V7.96289H152.857Z" fill="#15682E"/>
<path fill-rule="evenodd" clip-rule="evenodd" d="M155.682 7.14429H156.649L157.728 8.85592L158.807 7.14429H159.775V11.2373H158.882V8.55824L157.728 10.3071H157.691L156.538 8.59545V11.2373H155.645V7.14429H155.682Z" fill="#15682E"/>
</svg>
