<svg width="215" height="46" fill="none" version="1.1" viewBox="0 0 215 46" xmlns="http://www.w3.org/2000/svg">
	<g fill="#92C83E">
	 <path d="m51 6.6727 3.9-6.5209h-54.65l3.9 6.5209h46.85z"/>
	 <path d="m43.201 19.816 3.9-6.5715h-39.05l3.9 6.5715h31.25z"/>
	 <path d="m35.402 32.908 3.9-6.5715h-23.45l3.9 6.5715h15.65z"/>
	 <path d="m27.599 46 3.9-6.5209h-7.8l3.9 6.5209z"/>
	</g>
	<g fill="#15682E">
	 <path d="m19.75 32.908 3.95 6.5714h7.8l-4.1-6.5714h-7.65z"/>
	 <path d="m11.949 19.815 11.75 6.5209h15.6l-11.65-6.5209h-15.7z"/>
	 <path d="m4.1484 6.6728 19.55 6.5714h23.4l-19.45-6.5714h-23.5z"/>
	</g>
 <path d="m73.051 8.8965c-0.1 0.25275-0.30156 0.45577-0.60156 0.60742-0.3 0.15164-0.64922 0.20117-0.94922 0.20117h-12.4c-0.55 0-0.95039 0.051244-1.1504 0.15234-0.25 0.1011-0.4 0.30412-0.5 0.60742l-1.1992 4.9023h0.75c0.1-0.2022 0.24922-0.40504 0.44922-0.55664 0.2-0.1517 0.50078-0.20117 0.80078-0.20117h2.0996l-3.4492 14.811c-0.05 0.2528-0.050782 0.40476-0.050782 0.50586 0 0.6572 0.30117 0.96094 0.95117 0.96094h8.4492l0.19922-0.70898c-0.2 0-0.44844-0.10053-0.64844-0.30273s-0.3-0.40522-0.25-0.60742l3.3984-14.607h1.8008c1 0 1.6008-0.35452 1.8008-1.0117l1.1992-4.752h-0.69922zm8.0469 0.80859c-2.35 0-4.1484 0.70747-5.3984 2.0723-1 1.1121-1.7508 2.7817-2.3008 5.0059l-1.3496 5.8125c-0.25 1.0615-0.40039 2.1239-0.40039 3.1348 0 1.6682 0.50039 2.9825 1.4004 3.8418 0.95 0.8593 2.35 1.3145 4.25 1.3145h6.25c2 0 3.5492-0.45515 4.6992-1.3145 1.3-1.011 2.2-2.6299 2.75-4.9551l1.8496-7.7852c0.15-0.556 0.20117-1.161 0.20117-1.7676 0-1.7187-0.6-3.0336-1.75-3.9434-1.15-0.9605-2.6004-1.416-4.4004-1.416h-5.8008zm15.352 0-0.19922 0.70898c0.2 0 0.44844 0.10054 0.64844 0.30274s0.3 0.45405 0.25 0.65625l-4.1484 17.945c-0.05 0.2022-0.050781 0.40476-0.050781 0.50586 0 0.3033 0.1 0.55561 0.25 0.75781 0.2 0.2022 0.45078 0.30469 0.80078 0.30469h8.3984l0.20117-0.70898c-0.25 0-0.45039-0.049572-0.65039-0.20117-0.15-0.1517-0.25-0.35454-0.25-0.55664l0.09961-0.60742 1.1504-4.8516h6.25c1.85 0 3.2-0.45534 4-1.3652s1.5492-2.7805 2.1992-5.6113c0.039-0.2177 0.07923-0.41877 0.11523-0.60547 0.056-0.2902 0.10477-0.54446 0.13477-0.75976 0.05-0.3539 0.05078-0.75799 0.05078-1.2129 0-1.6176-0.50117-2.8297-1.4512-3.5879-0.95-0.7583-2.4-1.1133-4.25-1.1133h-13.549zm49 0-0.20117 0.70898c0.2 0 0.40156 0.10054 0.60156 0.30274 0.2 0.1516 0.29883 0.40337 0.29883 0.60547 0 0.2022-0.04961 0.35398-0.09961 0.45508l-8.9492 17.49c-0.1 0.2528-0.15039 0.40522-0.15039 0.60742 0 0.6571 0.44883 1.0117 1.2988 1.0117h6.6016l0.14844-0.70898c-0.25 0-0.44961-0.049572-0.59961-0.20117-0.15-0.1011-0.25-0.25298-0.25-0.45508 0.05-0.1517 0.05078-0.20331 0.05078-0.25391 0-0.0253 0.01339-0.048919 0.02539-0.074219 0.013-0.0253 0.02344-0.050971 0.02344-0.076171l1.25-2.5273h3.5508l0.25 3.1328c0.05 0.455 0.19922 0.75856 0.44922 0.91016 0.25 0.1517 0.60039 0.25391 1.1504 0.25391h7.8496l0.06054-0.18555c0.19978 0.11208 0.44974 0.18555 0.79297 0.18555h16.15c0.75 0 1.2996-0.051525 1.5996-0.20312 0.4-0.2022 0.69961-0.60629 0.84961-1.2129l0.80078-3.4883h-0.75c-0.45 0-0.74961-0.30374-0.84961-0.96094l-1.7012-14.104c-0.05-0.3539-0.19961-0.60658-0.59961-0.85938-0.3-0.25273-0.64961-0.35352-1.0996-0.35352h-7.3496l-0.15039 0.70898c0.25 0 0.44961 0.10035 0.59961 0.25195 0.15 0.1517 0.25 0.35472 0.25 0.60742l-0.04883 0.55469-6.1504 13.244c-0.1 0.2022-0.25117 0.45572-0.45117 0.60742-0.2 0.1516-0.45 0.25195-0.75 0.25195h-0.79883l-0.75 3.4375-0.05078 0.50586c0 0.0921 0.02712 0.16409 0.04297 0.24414-0.11536-0.057064-0.23034-0.11561-0.3457-0.19336-0.3-0.2527-0.44922-0.50501-0.44922-0.75781l-1.4004-17.945c0-0.5054-0.2-0.86058-0.5-1.1133-0.35-0.25279-0.75117-0.4043-1.2012-0.4043h-9.0488zm43.398 0c-2.3 0-4.1004 0.70747-5.4004 2.0723-1 1.1121-1.7488 2.7817-2.2988 5.0059l-1.3496 5.8125c-0.25 1.0615-0.40039 2.1239-0.40039 3.1348 0 1.6682 0.50039 2.9825 1.4004 3.8418 0.95 0.8593 2.35 1.3145 4.25 1.3145h6.25c2 0 3.5492-0.45515 4.6992-1.3145 1.3-1.011 2.2-2.6299 2.75-4.9551l1.8496-7.7852c0.15-0.556 0.20117-1.161 0.20117-1.7676 0-1.7187-0.6-3.0336-1.75-3.9434-1.15-0.9605-2.6004-1.416-4.4004-1.416h-5.8008zm-70.148 0.10156-0.20117 0.70703c0.2 0 0.45039 0.10249 0.65039 0.30469s0.3 0.40327 0.25 0.60547l-4.1504 18.047c-0.05 0.2527-0.04883 0.40476-0.04883 0.50586 0 0.6571 0.35 0.95898 1 0.95898h8.5l0.15039-0.70703c-0.25 0-0.45039-0.10035-0.65039-0.25195-0.2-0.2022-0.30078-0.40522-0.30078-0.60742l0.05078-0.25195 1.75-7.584h2.1504l-1.9004 7.9375v0.50586c0 0.6571 0.29922 0.95898 0.94922 0.95898h8.4512l0.19922-0.70703c-0.2 0-0.45039-0.10054-0.65039-0.30274s-0.3-0.40522-0.25-0.60742l4.1504-18.045 0.05078-0.45508c0-0.3538-0.1-0.60816-0.25-0.75976-0.15-0.15166-0.4-0.25195-0.75-0.25195h-8.4512l-0.15039 0.70703c0.25 0 0.45039 0.10249 0.65039 0.30469s0.3 0.40327 0.25 0.60547l-1.4004 6.1172h-2.1484l1.5-6.2676v-0.50586c0-0.6572-0.30117-0.96094-0.95117-0.96094h-8.4492zm-13.701 3.8926v0.050781h1.1016c0.5 0 0.79883 0.10053 1.0488 0.30273s0.34961 0.55533 0.34961 1.1113c0 0.4044-0.1 0.96027-0.25 1.668-0.3 1.2132-0.59844 2.0233-0.89844 2.4277s-0.8 0.60547-1.5 0.60547h-1.25l1.3984-6.166zm-21.5 0.91016c0.6 0 0.90039 0.30356 0.90039 0.91016 0 0.1011-7.82e-4 0.25121-0.050782 0.50391l-2 8.6445c-0.1 0.4549-0.24922 0.80934-0.44922 0.96094-0.2 0.1517-0.44961 0.25195-0.84961 0.25195-0.55 0-0.84961-0.25231-0.84961-0.75781 0-0.1675 0.034019-0.37062 0.074219-0.60742 0.0083-0.0491 0.01689-0.098391 0.02539-0.15039l1.9492-8.4922c0.2-0.8593 0.65-1.2637 1.25-1.2637zm107.75 0c0.6 0 0.90039 0.30356 0.90039 0.91016 0 0.1011-7.8e-4 0.25121-0.05078 0.50391l-2 8.6445c-0.1 0.4549-0.24922 0.80934-0.44922 0.96094-0.2 0.1517-0.44961 0.25195-0.84961 0.25195-0.55 0-0.85156-0.25231-0.85156-0.75781 0-0.1675 0.03617-0.37062 0.07617-0.60742 8e-3 -0.0491 0.01739-0.098391 0.02539-0.15039l1.9492-8.4922c0.25-0.8593 0.65-1.2637 1.25-1.2637zm-41.75 1.3652 0.45117 6.2676h-3.1504l2.6992-6.2676zm20.703 0.55469 0.60156 9.3008h-4.2012l3.5996-9.3008z" fill="#15682e"/>
 <path d="m203.75 9.7051v1.1133h1.6504 0.04883v4.4473h1.2012v-4.4473h1.6504v-1.1133h-4.5508zm5.3984 0v5.5605h1.1992v-3.5879l1.5508 2.3242h0.04883l1.5508-2.375v3.6387h1.1992v-5.5605h-1.2988l-1.4512 2.3262-1.4492-2.3262h-1.3008-0.04883z" fill="#15682e"/>
</svg>
